<svg xmlns="http://www.w3.org/2000/svg" version="1.1" xmlns:xlink="http://www.w3.org/1999/xlink" xmlns:svgjs="http://svgjs.com/svgjs" width="1440" height="560" preserveAspectRatio="none" viewBox="0 0 1440 560"><g mask="url(&quot;#SvgjsMask1067&quot;)" fill="none"><path d="M1457.611,298.205C1513.054,299.549,1565.775,270.155,1592.646,221.64C1618.765,174.483,1611.869,116.831,1583.434,71.034C1556.581,27.785,1508.457,1.674,1457.611,4.157C1410.548,6.455,1375.291,41.743,1351.413,82.364C1327.116,123.697,1312.293,172.337,1333.46,215.357C1357.001,263.203,1404.303,296.913,1457.611,298.205" fill="rgba(28, 83, 142, 0.4)" class="triangle-float3"></path><path d="M900.622,491.76C922.136,491.592,941.892,480.133,952.708,461.534C963.585,442.832,964.753,419.408,953.416,400.981C942.551,383.321,921.316,375.572,900.622,376.874C882.077,378.041,868.065,391.222,858.205,406.972C847.496,424.078,838.075,444.311,847.105,462.36C856.865,481.87,878.808,491.931,900.622,491.76" fill="rgba(28, 83, 142, 0.4)" class="triangle-float2"></path><path d="M1307.114,286.453C1320.436,286.605,1333.206,280.74,1340.314,269.472C1347.931,257.397,1350.2,241.914,1342.977,229.599C1335.824,217.404,1321.241,213.429,1307.114,212.868C1291.63,212.253,1273.637,213.083,1265.95,226.538C1258.294,239.937,1266.458,256.013,1275.197,268.732C1282.583,279.482,1294.072,286.305,1307.114,286.453" fill="rgba(28, 83, 142, 0.4)" class="triangle-float3"></path><path d="M1040.768,345.26C1079.258,347.6,1118.958,334.972,1139.915,302.603C1162.622,267.531,1165.643,221.498,1144.053,185.728C1123.074,150.97,1081.246,135.202,1040.768,138.336C1005.148,141.094,978.476,168.177,961.911,199.832C946.692,228.914,944.866,262.841,960.512,291.696C976.944,322,1006.36,343.168,1040.768,345.26" fill="rgba(28, 83, 142, 0.4)" class="triangle-float2"></path><path d="M699.567,206.671C729.09,204.507,751.826,184.651,767.877,159.779C785.892,131.864,802.588,99.097,788.366,69.072C772.511,35.599,736.584,14.327,699.567,15.569C664.318,16.751,637.902,44.014,620.52,74.702C603.445,104.849,593.584,141.528,611.388,171.251C628.833,200.376,665.708,209.153,699.567,206.671" fill="rgba(28, 83, 142, 0.4)" class="triangle-float3"></path><path d="M1097.444,672.354C1145.222,674.504,1199.28,667.203,1222.883,625.607C1246.304,584.332,1221.465,536.379,1198.011,495.123C1174.163,453.173,1145.6,408.046,1097.444,404.957C1045.135,401.601,995.569,433.922,971.735,480.607C949.678,523.812,963.546,574.566,990.143,615.135C1013.963,651.468,1054.043,670.401,1097.444,672.354" fill="rgba(28, 83, 142, 0.4)" class="triangle-float2"></path><path d="M495.54,319.229C530.474,318.843,561.318,300.227,580.698,271.159C602.869,237.905,621.273,195.55,600.945,161.139C580.813,127.058,535.056,124.699,495.54,127.001C460.848,129.022,427.463,142.572,409.459,172.295C390.799,203.101,388.853,242.002,407.059,273.079C425.081,303.842,459.889,319.623,495.54,319.229" fill="rgba(28, 83, 142, 0.4)" class="triangle-float3"></path><path d="M937.138,357.291C978.918,358.106,1017.098,335.16,1038.799,299.448C1061.416,262.229,1069.733,214.434,1046.226,177.771C1024.021,143.138,978.201,138.38,937.138,140.892C901.172,143.092,867.812,159.136,848.955,189.841C829.138,222.109,824.475,262.107,842.119,295.612C860.977,331.422,896.674,356.502,937.138,357.291" fill="rgba(28, 83, 142, 0.4)" class="triangle-float2"></path><path d="M576.913,530.049C611.783,530.361,649.332,525.756,668.656,496.729C689.811,464.953,691.285,421.726,670.222,389.889C650.788,360.514,612.134,357.826,576.913,358.06C542.262,358.29,504.593,362.048,485.729,391.116C465.499,422.289,467.583,464.042,487.974,495.11C506.706,523.651,542.775,529.743,576.913,530.049" fill="rgba(28, 83, 142, 0.4)" class="triangle-float3"></path><path d="M1449.081,225.728C1483.876,225.785,1505.78,192.156,1522.34,161.554C1537.861,132.871,1548.839,99.318,1532.876,70.879C1516.651,41.973,1482.225,30.498,1449.081,31.042C1416.983,31.569,1385.584,45.534,1369.917,73.553C1354.575,100.99,1361.731,133.427,1376.238,161.314C1392.271,192.133,1414.341,225.671,1449.081,225.728" fill="rgba(28, 83, 142, 0.4)" class="triangle-float2"></path></g><defs><mask id="SvgjsMask1067"><rect width="1440" height="560" fill="#ffffff"></rect></mask><style>
            @keyframes float1 {
                0%{transform: translate(0, 0)}
                50%{transform: translate(-10px, 0)}
                100%{transform: translate(0, 0)}
            }

            .triangle-float1 {
                animation: float1 5s infinite;
            }

            @keyframes float2 {
                0%{transform: translate(0, 0)}
                50%{transform: translate(-5px, -5px)}
                100%{transform: translate(0, 0)}
            }

            .triangle-float2 {
                animation: float2 4s infinite;
            }

            @keyframes float3 {
                0%{transform: translate(0, 0)}
                50%{transform: translate(0, -10px)}
                100%{transform: translate(0, 0)}
            }

            .triangle-float3 {
                animation: float3 6s infinite;
            }
        </style></defs></svg>