<svg xmlns="http://www.w3.org/2000/svg" version="1.1" xmlns:xlink="http://www.w3.org/1999/xlink" xmlns:svgjs="http://svgjs.com/svgjs" width="1440" height="560" preserveAspectRatio="none" viewBox="0 0 1440 560"><g mask="url(&quot;#SvgjsMask1002&quot;)" fill="none"><path d="M-60.54 350.96L-60.54 350.96" stroke="#132e65" stroke-width="1.5"></path><path d="M-60.54 350.96L-41.81 495.57" stroke="#132e65" stroke-width="1.5"></path><path d="M-60.54 350.96L47.32 558.77" stroke="#132e65" stroke-width="1.5"></path><path d="M-41.81 495.57L-41.81 495.57" stroke="#132e65" stroke-width="1.5"></path><path d="M-41.81 495.57L47.32 558.77" stroke="#132e65" stroke-width="1.5"></path><path d="M-41.81 495.57L-62.74 647.05" stroke="#132e65" stroke-width="1.5"></path><path d="M-41.81 495.57L106.68 681.26" stroke="#132e65" stroke-width="1.5"></path><path d="M-62.74 647.05L-62.74 647.05" stroke="#132e65" stroke-width="1.5"></path><path d="M-62.74 647.05L47.32 558.77" stroke="#132e65" stroke-width="1.5"></path><path d="M-62.74 647.05L106.68 681.26" stroke="#132e65" stroke-width="1.5"></path><path d="M47.32 558.77L47.32 558.77" stroke="#132e65" stroke-width="1.5"></path><path d="M47.32 558.77L106.68 681.26" stroke="#132e65" stroke-width="1.5"></path><path d="M106.68 681.26L106.68 681.26" stroke="#132e65" stroke-width="1.5"></path><path d="M106.68 681.26L225.41 641.82" stroke="#132e65" stroke-width="1.5"></path><path d="M239.79 349.22L239.79 349.22" stroke="#132e65" stroke-width="1.5"></path><path d="M239.79 349.22L344.33 359.6" stroke="#132e65" stroke-width="1.5"></path><path d="M239.79 349.22L260.34 523.38" stroke="#132e65" stroke-width="1.5"></path><path d="M239.79 349.22L389.25 561.23" stroke="#132e65" stroke-width="1.5"></path><path d="M239.79 349.22L516.03 408.58" stroke="#132e65" stroke-width="1.5"></path><path d="M260.34 523.38L260.34 523.38" stroke="#132e65" stroke-width="1.5"></path><path d="M260.34 523.38L225.41 641.82" stroke="#132e65" stroke-width="1.5"></path><path d="M260.34 523.38L389.25 561.23" stroke="#132e65" stroke-width="1.5"></path><path d="M260.34 523.38L392.76 642.45" stroke="#132e65" stroke-width="1.5"></path><path d="M260.34 523.38L344.33 359.6" stroke="#132e65" stroke-width="1.5"></path><path d="M260.34 523.38L47.32 558.77" stroke="#132e65" stroke-width="1.5"></path><path d="M225.41 641.82L225.41 641.82" stroke="#132e65" stroke-width="1.5"></path><path d="M225.41 641.82L392.76 642.45" stroke="#132e65" stroke-width="1.5"></path><path d="M225.41 641.82L389.25 561.23" stroke="#132e65" stroke-width="1.5"></path><path d="M225.41 641.82L47.32 558.77" stroke="#132e65" stroke-width="1.5"></path><path d="M225.41 641.82L510.65 650.22" stroke="#132e65" stroke-width="1.5"></path><path d="M344.33 359.6L344.33 359.6" stroke="#132e65" stroke-width="1.5"></path><path d="M344.33 359.6L516.03 408.58" stroke="#132e65" stroke-width="1.5"></path><path d="M344.33 359.6L389.25 561.23" stroke="#132e65" stroke-width="1.5"></path><path d="M344.33 359.6L546.16 545.98" stroke="#132e65" stroke-width="1.5"></path><path d="M389.25 561.23L389.25 561.23" stroke="#132e65" stroke-width="1.5"></path><path d="M389.25 561.23L392.76 642.45" stroke="#132e65" stroke-width="1.5"></path><path d="M389.25 561.23L510.65 650.22" stroke="#132e65" stroke-width="1.5"></path><path d="M389.25 561.23L546.16 545.98" stroke="#132e65" stroke-width="1.5"></path><path d="M392.76 642.45L392.76 642.45" stroke="#132e65" stroke-width="1.5"></path><path d="M392.76 642.45L510.65 650.22" stroke="#132e65" stroke-width="1.5"></path><path d="M516.03 408.58L516.03 408.58" stroke="#132e65" stroke-width="1.5"></path><path d="M516.03 408.58L546.16 545.98" stroke="#132e65" stroke-width="1.5"></path><path d="M516.03 408.58L659.31 361.56" stroke="#132e65" stroke-width="1.5"></path><path d="M516.03 408.58L389.25 561.23" stroke="#132e65" stroke-width="1.5"></path><path d="M546.16 545.98L546.16 545.98" stroke="#132e65" stroke-width="1.5"></path><path d="M546.16 545.98L510.65 650.22" stroke="#132e65" stroke-width="1.5"></path><path d="M510.65 650.22L510.65 650.22" stroke="#132e65" stroke-width="1.5"></path><path d="M659.31 361.56L659.31 361.56" stroke="#132e65" stroke-width="1.5"></path><path d="M659.31 361.56L792.12 337.73" stroke="#132e65" stroke-width="1.5"></path><path d="M659.31 361.56L693.83 544.66" stroke="#132e65" stroke-width="1.5"></path><path d="M659.31 361.56L546.16 545.98" stroke="#132e65" stroke-width="1.5"></path><path d="M659.31 361.56L814.6 194" stroke="#132e65" stroke-width="1.5"></path><path d="M693.83 544.66L693.83 544.66" stroke="#132e65" stroke-width="1.5"></path><path d="M693.83 544.66L678.44 643.98" stroke="#132e65" stroke-width="1.5"></path><path d="M693.83 544.66L826.99 548.33" stroke="#132e65" stroke-width="1.5"></path><path d="M678.44 643.98L678.44 643.98" stroke="#132e65" stroke-width="1.5"></path><path d="M678.44 643.98L806.64 709.35" stroke="#132e65" stroke-width="1.5"></path><path d="M678.44 643.98L546.16 545.98" stroke="#132e65" stroke-width="1.5"></path><path d="M678.44 643.98L510.65 650.22" stroke="#132e65" stroke-width="1.5"></path><path d="M814.6 194L814.6 194" stroke="#132e65" stroke-width="1.5"></path><path d="M814.6 194L792.12 337.73" stroke="#132e65" stroke-width="1.5"></path><path d="M814.6 194L997.89 217.7" stroke="#132e65" stroke-width="1.5"></path><path d="M814.6 194L966.95 373.55" stroke="#132e65" stroke-width="1.5"></path><path d="M792.12 337.73L792.12 337.73" stroke="#132e65" stroke-width="1.5"></path><path d="M792.12 337.73L966.95 373.55" stroke="#132e65" stroke-width="1.5"></path><path d="M826.99 548.33L826.99 548.33" stroke="#132e65" stroke-width="1.5"></path><path d="M826.99 548.33L806.64 709.35" stroke="#132e65" stroke-width="1.5"></path><path d="M826.99 548.33L678.44 643.98" stroke="#132e65" stroke-width="1.5"></path><path d="M806.64 709.35L806.64 709.35" stroke="#132e65" stroke-width="1.5"></path><path d="M806.64 709.35L994.7 656.78" stroke="#132e65" stroke-width="1.5"></path><path d="M806.64 709.35L693.83 544.66" stroke="#132e65" stroke-width="1.5"></path><path d="M806.64 709.35L1005.38 521.99" stroke="#132e65" stroke-width="1.5"></path><path d="M806.64 709.35L510.65 650.22" stroke="#132e65" stroke-width="1.5"></path><path d="M939.98 -102.29L939.98 -102.29" stroke="#132e65" stroke-width="1.5"></path><path d="M939.98 -102.29L1006.79 39.79" stroke="#132e65" stroke-width="1.5"></path><path d="M939.98 -102.29L1111.41 -111.8" stroke="#132e65" stroke-width="1.5"></path><path d="M939.98 -102.29L1136.07 82.12" stroke="#132e65" stroke-width="1.5"></path><path d="M939.98 -102.29L814.6 194" stroke="#132e65" stroke-width="1.5"></path><path d="M939.98 -102.29L1262.43 -84.01" stroke="#132e65" stroke-width="1.5"></path><path d="M939.98 -102.29L997.89 217.7" stroke="#132e65" stroke-width="1.5"></path><path d="M1006.79 39.79L1006.79 39.79" stroke="#132e65" stroke-width="1.5"></path><path d="M1006.79 39.79L1136.07 82.12" stroke="#132e65" stroke-width="1.5"></path><path d="M1006.79 39.79L997.89 217.7" stroke="#132e65" stroke-width="1.5"></path><path d="M1006.79 39.79L1111.41 -111.8" stroke="#132e65" stroke-width="1.5"></path><path d="M997.89 217.7L997.89 217.7" stroke="#132e65" stroke-width="1.5"></path><path d="M997.89 217.7L1144.3 210" stroke="#132e65" stroke-width="1.5"></path><path d="M997.89 217.7L966.95 373.55" stroke="#132e65" stroke-width="1.5"></path><path d="M966.95 373.55L966.95 373.55" stroke="#132e65" stroke-width="1.5"></path><path d="M966.95 373.55L1005.38 521.99" stroke="#132e65" stroke-width="1.5"></path><path d="M1005.38 521.99L1005.38 521.99" stroke="#132e65" stroke-width="1.5"></path><path d="M1005.38 521.99L1107.59 529.03" stroke="#132e65" stroke-width="1.5"></path><path d="M1005.38 521.99L994.7 656.78" stroke="#132e65" stroke-width="1.5"></path><path d="M994.7 656.78L994.7 656.78" stroke="#132e65" stroke-width="1.5"></path><path d="M1111.41 -111.8L1111.41 -111.8" stroke="#132e65" stroke-width="1.5"></path><path d="M1111.41 -111.8L1262.43 -84.01" stroke="#132e65" stroke-width="1.5"></path><path d="M1136.07 82.12L1136.07 82.12" stroke="#132e65" stroke-width="1.5"></path><path d="M1136.07 82.12L1144.3 210" stroke="#132e65" stroke-width="1.5"></path><path d="M1144.3 210L1144.3 210" stroke="#132e65" stroke-width="1.5"></path><path d="M1144.3 210L1240.89 260.59" stroke="#132e65" stroke-width="1.5"></path><path d="M1144.3 210L1148.03 371.37" stroke="#132e65" stroke-width="1.5"></path><path d="M1144.3 210L1290.66 99.44" stroke="#132e65" stroke-width="1.5"></path><path d="M1148.03 371.37L1148.03 371.37" stroke="#132e65" stroke-width="1.5"></path><path d="M1148.03 371.37L1271.7 403.21" stroke="#132e65" stroke-width="1.5"></path><path d="M1148.03 371.37L1240.89 260.59" stroke="#132e65" stroke-width="1.5"></path><path d="M1107.59 529.03L1107.59 529.03" stroke="#132e65" stroke-width="1.5"></path><path d="M1107.59 529.03L1160.69 650.08" stroke="#132e65" stroke-width="1.5"></path><path d="M1107.59 529.03L1245.49 505.52" stroke="#132e65" stroke-width="1.5"></path><path d="M1107.59 529.03L1148.03 371.37" stroke="#132e65" stroke-width="1.5"></path><path d="M1107.59 529.03L994.7 656.78" stroke="#132e65" stroke-width="1.5"></path><path d="M1107.59 529.03L1271.7 403.21" stroke="#132e65" stroke-width="1.5"></path><path d="M1160.69 650.08L1160.69 650.08" stroke="#132e65" stroke-width="1.5"></path><path d="M1160.69 650.08L1308.33 675.33" stroke="#132e65" stroke-width="1.5"></path><path d="M1160.69 650.08L994.7 656.78" stroke="#132e65" stroke-width="1.5"></path><path d="M1160.69 650.08L1245.49 505.52" stroke="#132e65" stroke-width="1.5"></path><path d="M1160.69 650.08L1005.38 521.99" stroke="#132e65" stroke-width="1.5"></path><path d="M1160.69 650.08L1397.96 673.94" stroke="#132e65" stroke-width="1.5"></path><path d="M1262.43 -84.01L1262.43 -84.01" stroke="#132e65" stroke-width="1.5"></path><path d="M1262.43 -84.01L1424.96 -78.16" stroke="#132e65" stroke-width="1.5"></path><path d="M1290.66 99.44L1290.66 99.44" stroke="#132e65" stroke-width="1.5"></path><path d="M1290.66 99.44L1416.29 37.5" stroke="#132e65" stroke-width="1.5"></path><path d="M1290.66 99.44L1136.07 82.12" stroke="#132e65" stroke-width="1.5"></path><path d="M1290.66 99.44L1240.89 260.59" stroke="#132e65" stroke-width="1.5"></path><path d="M1290.66 99.44L1433.02 207.98" stroke="#132e65" stroke-width="1.5"></path><path d="M1290.66 99.44L1262.43 -84.01" stroke="#132e65" stroke-width="1.5"></path><path d="M1240.89 260.59L1240.89 260.59" stroke="#132e65" stroke-width="1.5"></path><path d="M1240.89 260.59L1271.7 403.21" stroke="#132e65" stroke-width="1.5"></path><path d="M1240.89 260.59L1433.02 207.98" stroke="#132e65" stroke-width="1.5"></path><path d="M1271.7 403.21L1271.7 403.21" stroke="#132e65" stroke-width="1.5"></path><path d="M1271.7 403.21L1245.49 505.52" stroke="#132e65" stroke-width="1.5"></path><path d="M1245.49 505.52L1245.49 505.52" stroke="#132e65" stroke-width="1.5"></path><path d="M1245.49 505.52L1148.03 371.37" stroke="#132e65" stroke-width="1.5"></path><path d="M1245.49 505.52L1308.33 675.33" stroke="#132e65" stroke-width="1.5"></path><path d="M1308.33 675.33L1308.33 675.33" stroke="#132e65" stroke-width="1.5"></path><path d="M1308.33 675.33L1397.96 673.94" stroke="#132e65" stroke-width="1.5"></path><path d="M1424.96 -78.16L1424.96 -78.16" stroke="#132e65" stroke-width="1.5"></path><path d="M1424.96 -78.16L1416.29 37.5" stroke="#132e65" stroke-width="1.5"></path><path d="M1424.96 -78.16L1537.79 62.74" stroke="#132e65" stroke-width="1.5"></path><path d="M1424.96 -78.16L1290.66 99.44" stroke="#132e65" stroke-width="1.5"></path><path d="M1424.96 -78.16L1433.02 207.98" stroke="#132e65" stroke-width="1.5"></path><path d="M1416.29 37.5L1416.29 37.5" stroke="#132e65" stroke-width="1.5"></path><path d="M1416.29 37.5L1537.79 62.74" stroke="#132e65" stroke-width="1.5"></path><path d="M1433.02 207.98L1433.02 207.98" stroke="#132e65" stroke-width="1.5"></path><path d="M1433.02 207.98L1581.22 240.44" stroke="#132e65" stroke-width="1.5"></path><path d="M1433.02 207.98L1416.29 37.5" stroke="#132e65" stroke-width="1.5"></path><path d="M1433.02 207.98L1537.79 62.74" stroke="#132e65" stroke-width="1.5"></path><path d="M1452.17 494.92L1452.17 494.92" stroke="#132e65" stroke-width="1.5"></path><path d="M1452.17 494.92L1561.88 543.1" stroke="#132e65" stroke-width="1.5"></path><path d="M1452.17 494.92L1576.51 396.62" stroke="#132e65" stroke-width="1.5"></path><path d="M1452.17 494.92L1397.96 673.94" stroke="#132e65" stroke-width="1.5"></path><path d="M1452.17 494.92L1271.7 403.21" stroke="#132e65" stroke-width="1.5"></path><path d="M1397.96 673.94L1397.96 673.94" stroke="#132e65" stroke-width="1.5"></path><path d="M1397.96 673.94L1606.3 670.77" stroke="#132e65" stroke-width="1.5"></path><path d="M1397.96 673.94L1561.88 543.1" stroke="#132e65" stroke-width="1.5"></path><path d="M1537.79 62.74L1537.79 62.74" stroke="#132e65" stroke-width="1.5"></path><path d="M1581.22 240.44L1581.22 240.44" stroke="#132e65" stroke-width="1.5"></path><path d="M1581.22 240.44L1576.51 396.62" stroke="#132e65" stroke-width="1.5"></path><path d="M1581.22 240.44L1537.79 62.74" stroke="#132e65" stroke-width="1.5"></path><path d="M1576.51 396.62L1576.51 396.62" stroke="#132e65" stroke-width="1.5"></path><path d="M1576.51 396.62L1561.88 543.1" stroke="#132e65" stroke-width="1.5"></path><path d="M1561.88 543.1L1561.88 543.1" stroke="#132e65" stroke-width="1.5"></path><path d="M1561.88 543.1L1606.3 670.77" stroke="#132e65" stroke-width="1.5"></path><path d="M1561.88 543.1L1308.33 675.33" stroke="#132e65" stroke-width="1.5"></path><path d="M1561.88 543.1L1581.22 240.44" stroke="#132e65" stroke-width="1.5"></path><path d="M1606.3 670.77L1606.3 670.77" stroke="#132e65" stroke-width="1.5"></path><path d="M1606.3 670.77L1452.17 494.92" stroke="#132e65" stroke-width="1.5"></path><path d="M1606.3 670.77L1576.51 396.62" stroke="#132e65" stroke-width="1.5"></path><path d="M1606.3 670.77L1308.33 675.33" stroke="#132e65" stroke-width="1.5"></path><circle r="5" cx="-60.54" cy="350.96" fill="#132e65"></circle><circle r="5" cx="-41.81" cy="495.57" fill="#132e65"></circle><circle r="5" cx="-62.74" cy="647.05" fill="#132e65"></circle><circle r="5" cx="47.32" cy="558.77" fill="#132e65"></circle><circle r="5" cx="106.68" cy="681.26" fill="#132e65"></circle><circle r="5" cx="239.79" cy="349.22" fill="#132e65"></circle><circle r="5" cx="260.34" cy="523.38" fill="#132e65"></circle><circle r="5" cx="225.41" cy="641.82" fill="#132e65"></circle><circle r="5" cx="344.33" cy="359.6" fill="#132e65"></circle><circle r="5" cx="389.25" cy="561.23" fill="#132e65"></circle><circle r="5" cx="392.76" cy="642.45" fill="#132e65"></circle><circle r="5" cx="516.03" cy="408.58" fill="#132e65"></circle><circle r="5" cx="546.16" cy="545.98" fill="#132e65"></circle><circle r="5" cx="510.65" cy="650.22" fill="#132e65"></circle><circle r="5" cx="659.31" cy="361.56" fill="#132e65"></circle><circle r="5" cx="693.83" cy="544.66" fill="#132e65"></circle><circle r="5" cx="678.44" cy="643.98" fill="#132e65"></circle><circle r="5" cx="814.6" cy="194" fill="#132e65"></circle><circle r="5" cx="792.12" cy="337.73" fill="#132e65"></circle><circle r="5" cx="826.99" cy="548.33" fill="#132e65"></circle><circle r="5" cx="806.64" cy="709.35" fill="#132e65"></circle><circle r="5" cx="939.98" cy="-102.29" fill="#132e65"></circle><circle r="5" cx="1006.79" cy="39.79" fill="#132e65"></circle><circle r="5" cx="997.89" cy="217.7" fill="#132e65"></circle><circle r="5" cx="966.95" cy="373.55" fill="#132e65"></circle><circle r="5" cx="1005.38" cy="521.99" fill="#132e65"></circle><circle r="5" cx="994.7" cy="656.78" fill="#132e65"></circle><circle r="5" cx="1111.41" cy="-111.8" fill="#132e65"></circle><circle r="5" cx="1136.07" cy="82.12" fill="#132e65"></circle><circle r="5" cx="1144.3" cy="210" fill="#132e65"></circle><circle r="5" cx="1148.03" cy="371.37" fill="#132e65"></circle><circle r="5" cx="1107.59" cy="529.03" fill="#132e65"></circle><circle r="5" cx="1160.69" cy="650.08" fill="#132e65"></circle><circle r="5" cx="1262.43" cy="-84.01" fill="#132e65"></circle><circle r="5" cx="1290.66" cy="99.44" fill="#132e65"></circle><circle r="5" cx="1240.89" cy="260.59" fill="#132e65"></circle><circle r="5" cx="1271.7" cy="403.21" fill="#132e65"></circle><circle r="5" cx="1245.49" cy="505.52" fill="#132e65"></circle><circle r="5" cx="1308.33" cy="675.33" fill="#132e65"></circle><circle r="5" cx="1424.96" cy="-78.16" fill="#132e65"></circle><circle r="5" cx="1416.29" cy="37.5" fill="#132e65"></circle><circle r="5" cx="1433.02" cy="207.98" fill="#132e65"></circle><circle r="5" cx="1452.17" cy="494.92" fill="#132e65"></circle><circle r="5" cx="1397.96" cy="673.94" fill="#132e65"></circle><circle r="5" cx="1537.79" cy="62.74" fill="#132e65"></circle><circle r="5" cx="1581.22" cy="240.44" fill="#132e65"></circle><circle r="5" cx="1576.51" cy="396.62" fill="#132e65"></circle><circle r="5" cx="1561.88" cy="543.1" fill="#132e65"></circle><circle r="5" cx="1606.3" cy="670.77" fill="#132e65"></circle><path d="M514.49 677.85L514.49 677.85" stroke="hsl(228.5, 77.2%, 51.5%)" stroke-width="1.5"></path><path d="M514.49 677.85L401.56 651.08" stroke="hsl(228.5, 77.2%, 51.5%)" stroke-width="1.5"></path><path d="M514.49 677.85L654.38 706.61" stroke="hsl(228.5, 77.2%, 51.5%)" stroke-width="1.5"></path><path d="M514.49 677.85L387.13 553.12" stroke="hsl(228.5, 77.2%, 51.5%)" stroke-width="1.5"></path><path d="M710.02 353.84L710.02 353.84" stroke="hsl(228.5, 77.2%, 51.5%)" stroke-width="1.5"></path><path d="M710.02 353.84L832.58 367.92" stroke="hsl(228.5, 77.2%, 51.5%)" stroke-width="1.5"></path><path d="M710.02 353.84L689.25 535.3" stroke="hsl(228.5, 77.2%, 51.5%)" stroke-width="1.5"></path><path d="M710.02 353.84L547.89 493.22" stroke="hsl(228.5, 77.2%, 51.5%)" stroke-width="1.5"></path><path d="M710.02 353.84L831.44 540.47" stroke="hsl(228.5, 77.2%, 51.5%)" stroke-width="1.5"></path><path d="M831.44 540.47L831.44 540.47" stroke="hsl(228.5, 77.2%, 51.5%)" stroke-width="1.5"></path><path d="M831.44 540.47L832.56 651.46" stroke="hsl(228.5, 77.2%, 51.5%)" stroke-width="1.5"></path><path d="M831.44 540.47L960.78 512.81" stroke="hsl(228.5, 77.2%, 51.5%)" stroke-width="1.5"></path><path d="M1115.48 487.61L1115.48 487.61" stroke="hsl(228.5, 77.2%, 51.5%)" stroke-width="1.5"></path><path d="M1115.48 487.61L1091.82 366.01" stroke="hsl(228.5, 77.2%, 51.5%)" stroke-width="1.5"></path><path d="M1115.48 487.61L1241.25 399.48" stroke="hsl(228.5, 77.2%, 51.5%)" stroke-width="1.5"></path><path d="M1115.48 487.61L960.78 512.81" stroke="hsl(228.5, 77.2%, 51.5%)" stroke-width="1.5"></path><path d="M1115.48 487.61L1292.51 543.35" stroke="hsl(228.5, 77.2%, 51.5%)" stroke-width="1.5"></path><path d="M1115.48 487.61L1099.35 698.27" stroke="hsl(228.5, 77.2%, 51.5%)" stroke-width="1.5"></path><path d="M1115.48 487.61L937.6 341.75" stroke="hsl(228.5, 77.2%, 51.5%)" stroke-width="1.5"></path><path d="M1254.42 197.51L1254.42 197.51" stroke="hsl(228.5, 77.2%, 51.5%)" stroke-width="1.5"></path><path d="M1254.42 197.51L1293.77 46.48" stroke="hsl(228.5, 77.2%, 51.5%)" stroke-width="1.5"></path><path d="M1254.42 197.51L1241.25 399.48" stroke="hsl(228.5, 77.2%, 51.5%)" stroke-width="1.5"></path><path d="M1254.42 197.51L1457.98 241.11" stroke="hsl(228.5, 77.2%, 51.5%)" stroke-width="1.5"></path><path d="M1254.42 197.51L1091.82 366.01" stroke="hsl(228.5, 77.2%, 51.5%)" stroke-width="1.5"></path><path d="M1457.98 241.11L1457.98 241.11" stroke="hsl(228.5, 77.2%, 51.5%)" stroke-width="1.5"></path><path d="M1457.98 241.11L1460.19 355.79" stroke="hsl(228.5, 77.2%, 51.5%)" stroke-width="1.5"></path><path d="M1457.98 241.11L1607.57 222.05" stroke="hsl(228.5, 77.2%, 51.5%)" stroke-width="1.5"></path><path d="M1447.12 561.9L1447.12 561.9" stroke="hsl(228.5, 77.2%, 51.5%)" stroke-width="1.5"></path><path d="M1447.12 561.9L1392.91 649.08" stroke="hsl(228.5, 77.2%, 51.5%)" stroke-width="1.5"></path><path d="M1447.12 561.9L1596.39 525.26" stroke="hsl(228.5, 77.2%, 51.5%)" stroke-width="1.5"></path><path d="M1447.12 561.9L1292.51 543.35" stroke="hsl(228.5, 77.2%, 51.5%)" stroke-width="1.5"></path><path d="M1392.91 649.08L1392.91 649.08" stroke="hsl(228.5, 77.2%, 51.5%)" stroke-width="1.5"></path><path d="M1392.91 649.08L1302.4 660.6" stroke="hsl(228.5, 77.2%, 51.5%)" stroke-width="1.5"></path><path d="M1392.91 649.08L1292.51 543.35" stroke="hsl(228.5, 77.2%, 51.5%)" stroke-width="1.5"></path><path d="M1392.91 649.08L1551.41 705.01" stroke="hsl(228.5, 77.2%, 51.5%)" stroke-width="1.5"></path><path d="M1584.47 100.06L1584.47 100.06" stroke="hsl(228.5, 77.2%, 51.5%)" stroke-width="1.5"></path><path d="M1584.47 100.06L1607.57 222.05" stroke="hsl(228.5, 77.2%, 51.5%)" stroke-width="1.5"></path><path d="M1584.47 100.06L1612.43 -68" stroke="hsl(228.5, 77.2%, 51.5%)" stroke-width="1.5"></path><path d="M1584.47 100.06L1457.98 241.11" stroke="hsl(228.5, 77.2%, 51.5%)" stroke-width="1.5"></path><path d="M1584.47 100.06L1446.08 -39.04" stroke="hsl(228.5, 77.2%, 51.5%)" stroke-width="1.5"></path><path d="M1584.47 100.06L1460.19 355.79" stroke="hsl(228.5, 77.2%, 51.5%)" stroke-width="1.5"></path><path d="M-82.57 543.19L-82.57 543.19" stroke="hsl(228.5, 77.2%, 51.5%)" stroke-width="1.5"></path><path d="M-82.57 543.19L57.23 496.47" stroke="hsl(228.5, 77.2%, 51.5%)" stroke-width="1.5"></path><path d="M-82.57 543.19L-69.44 701.84" stroke="hsl(228.5, 77.2%, 51.5%)" stroke-width="1.5"></path><path d="M-69.44 701.84L-69.44 701.84" stroke="hsl(228.5, 77.2%, 51.5%)" stroke-width="1.5"></path><path d="M-69.44 701.84L68.96 694.9" stroke="hsl(228.5, 77.2%, 51.5%)" stroke-width="1.5"></path><path d="M-69.44 701.84L57.23 496.47" stroke="hsl(228.5, 77.2%, 51.5%)" stroke-width="1.5"></path><path d="M-69.44 701.84L224.28 689.7" stroke="hsl(228.5, 77.2%, 51.5%)" stroke-width="1.5"></path><path d="M57.23 496.47L57.23 496.47" stroke="hsl(228.5, 77.2%, 51.5%)" stroke-width="1.5"></path><path d="M57.23 496.47L223.91 515.53" stroke="hsl(228.5, 77.2%, 51.5%)" stroke-width="1.5"></path><path d="M57.23 496.47L68.96 694.9" stroke="hsl(228.5, 77.2%, 51.5%)" stroke-width="1.5"></path><path d="M57.23 496.47L224.28 689.7" stroke="hsl(228.5, 77.2%, 51.5%)" stroke-width="1.5"></path><path d="M68.96 694.9L68.96 694.9" stroke="hsl(228.5, 77.2%, 51.5%)" stroke-width="1.5"></path><path d="M68.96 694.9L224.28 689.7" stroke="hsl(228.5, 77.2%, 51.5%)" stroke-width="1.5"></path><path d="M68.96 694.9L-82.57 543.19" stroke="hsl(228.5, 77.2%, 51.5%)" stroke-width="1.5"></path><path d="M68.96 694.9L223.91 515.53" stroke="hsl(228.5, 77.2%, 51.5%)" stroke-width="1.5"></path><path d="M223.91 515.53L223.91 515.53" stroke="hsl(228.5, 77.2%, 51.5%)" stroke-width="1.5"></path><path d="M223.91 515.53L387.13 553.12" stroke="hsl(228.5, 77.2%, 51.5%)" stroke-width="1.5"></path><path d="M224.28 689.7L224.28 689.7" stroke="hsl(228.5, 77.2%, 51.5%)" stroke-width="1.5"></path><path d="M224.28 689.7L223.91 515.53" stroke="hsl(228.5, 77.2%, 51.5%)" stroke-width="1.5"></path><path d="M224.28 689.7L401.56 651.08" stroke="hsl(228.5, 77.2%, 51.5%)" stroke-width="1.5"></path><path d="M224.28 689.7L387.13 553.12" stroke="hsl(228.5, 77.2%, 51.5%)" stroke-width="1.5"></path><path d="M387.13 553.12L387.13 553.12" stroke="hsl(228.5, 77.2%, 51.5%)" stroke-width="1.5"></path><path d="M387.13 553.12L401.56 651.08" stroke="hsl(228.5, 77.2%, 51.5%)" stroke-width="1.5"></path><path d="M401.56 651.08L401.56 651.08" stroke="hsl(228.5, 77.2%, 51.5%)" stroke-width="1.5"></path><path d="M547.89 493.22L547.89 493.22" stroke="hsl(228.5, 77.2%, 51.5%)" stroke-width="1.5"></path><path d="M547.89 493.22L689.25 535.3" stroke="hsl(228.5, 77.2%, 51.5%)" stroke-width="1.5"></path><path d="M547.89 493.22L387.13 553.12" stroke="hsl(228.5, 77.2%, 51.5%)" stroke-width="1.5"></path><path d="M547.89 493.22L514.49 677.85" stroke="hsl(228.5, 77.2%, 51.5%)" stroke-width="1.5"></path><path d="M547.89 493.22L401.56 651.08" stroke="hsl(228.5, 77.2%, 51.5%)" stroke-width="1.5"></path><path d="M547.89 493.22L654.38 706.61" stroke="hsl(228.5, 77.2%, 51.5%)" stroke-width="1.5"></path><path d="M689.25 535.3L689.25 535.3" stroke="hsl(228.5, 77.2%, 51.5%)" stroke-width="1.5"></path><path d="M689.25 535.3L831.44 540.47" stroke="hsl(228.5, 77.2%, 51.5%)" stroke-width="1.5"></path><path d="M654.38 706.61L654.38 706.61" stroke="hsl(228.5, 77.2%, 51.5%)" stroke-width="1.5"></path><path d="M654.38 706.61L689.25 535.3" stroke="hsl(228.5, 77.2%, 51.5%)" stroke-width="1.5"></path><path d="M654.38 706.61L832.56 651.46" stroke="hsl(228.5, 77.2%, 51.5%)" stroke-width="1.5"></path><path d="M832.58 367.92L832.58 367.92" stroke="hsl(228.5, 77.2%, 51.5%)" stroke-width="1.5"></path><path d="M832.58 367.92L937.6 341.75" stroke="hsl(228.5, 77.2%, 51.5%)" stroke-width="1.5"></path><path d="M832.58 367.92L831.44 540.47" stroke="hsl(228.5, 77.2%, 51.5%)" stroke-width="1.5"></path><path d="M832.58 367.92L960.78 512.81" stroke="hsl(228.5, 77.2%, 51.5%)" stroke-width="1.5"></path><path d="M832.58 367.92L993.15 239.25" stroke="hsl(228.5, 77.2%, 51.5%)" stroke-width="1.5"></path><path d="M832.58 367.92L689.25 535.3" stroke="hsl(228.5, 77.2%, 51.5%)" stroke-width="1.5"></path><path d="M832.56 651.46L832.56 651.46" stroke="hsl(228.5, 77.2%, 51.5%)" stroke-width="1.5"></path><path d="M832.56 651.46L943.95 697.89" stroke="hsl(228.5, 77.2%, 51.5%)" stroke-width="1.5"></path><path d="M832.56 651.46L689.25 535.3" stroke="hsl(228.5, 77.2%, 51.5%)" stroke-width="1.5"></path><path d="M993.15 239.25L993.15 239.25" stroke="hsl(228.5, 77.2%, 51.5%)" stroke-width="1.5"></path><path d="M993.15 239.25L937.6 341.75" stroke="hsl(228.5, 77.2%, 51.5%)" stroke-width="1.5"></path><path d="M993.15 239.25L1091.82 366.01" stroke="hsl(228.5, 77.2%, 51.5%)" stroke-width="1.5"></path><path d="M937.6 341.75L937.6 341.75" stroke="hsl(228.5, 77.2%, 51.5%)" stroke-width="1.5"></path><path d="M937.6 341.75L1091.82 366.01" stroke="hsl(228.5, 77.2%, 51.5%)" stroke-width="1.5"></path><path d="M937.6 341.75L960.78 512.81" stroke="hsl(228.5, 77.2%, 51.5%)" stroke-width="1.5"></path><path d="M937.6 341.75L831.44 540.47" stroke="hsl(228.5, 77.2%, 51.5%)" stroke-width="1.5"></path><path d="M960.78 512.81L960.78 512.81" stroke="hsl(228.5, 77.2%, 51.5%)" stroke-width="1.5"></path><path d="M943.95 697.89L943.95 697.89" stroke="hsl(228.5, 77.2%, 51.5%)" stroke-width="1.5"></path><path d="M943.95 697.89L1099.35 698.27" stroke="hsl(228.5, 77.2%, 51.5%)" stroke-width="1.5"></path><path d="M943.95 697.89L960.78 512.81" stroke="hsl(228.5, 77.2%, 51.5%)" stroke-width="1.5"></path><path d="M943.95 697.89L831.44 540.47" stroke="hsl(228.5, 77.2%, 51.5%)" stroke-width="1.5"></path><path d="M1161.38 -70.55L1161.38 -70.55" stroke="hsl(228.5, 77.2%, 51.5%)" stroke-width="1.5"></path><path d="M1161.38 -70.55L1293.77 46.48" stroke="hsl(228.5, 77.2%, 51.5%)" stroke-width="1.5"></path><path d="M1161.38 -70.55L1254.42 197.51" stroke="hsl(228.5, 77.2%, 51.5%)" stroke-width="1.5"></path><path d="M1161.38 -70.55L1446.08 -39.04" stroke="hsl(228.5, 77.2%, 51.5%)" stroke-width="1.5"></path><path d="M1161.38 -70.55L993.15 239.25" stroke="hsl(228.5, 77.2%, 51.5%)" stroke-width="1.5"></path><path d="M1161.38 -70.55L1457.98 241.11" stroke="hsl(228.5, 77.2%, 51.5%)" stroke-width="1.5"></path><path d="M1161.38 -70.55L1091.82 366.01" stroke="hsl(228.5, 77.2%, 51.5%)" stroke-width="1.5"></path><path d="M1091.82 366.01L1091.82 366.01" stroke="hsl(228.5, 77.2%, 51.5%)" stroke-width="1.5"></path><path d="M1091.82 366.01L1241.25 399.48" stroke="hsl(228.5, 77.2%, 51.5%)" stroke-width="1.5"></path><path d="M1091.82 366.01L960.78 512.81" stroke="hsl(228.5, 77.2%, 51.5%)" stroke-width="1.5"></path><path d="M1099.35 698.27L1099.35 698.27" stroke="hsl(228.5, 77.2%, 51.5%)" stroke-width="1.5"></path><path d="M1099.35 698.27L1302.4 660.6" stroke="hsl(228.5, 77.2%, 51.5%)" stroke-width="1.5"></path><path d="M1099.35 698.27L960.78 512.81" stroke="hsl(228.5, 77.2%, 51.5%)" stroke-width="1.5"></path><path d="M1293.77 46.48L1293.77 46.48" stroke="hsl(228.5, 77.2%, 51.5%)" stroke-width="1.5"></path><path d="M1293.77 46.48L1446.08 -39.04" stroke="hsl(228.5, 77.2%, 51.5%)" stroke-width="1.5"></path><path d="M1293.77 46.48L1457.98 241.11" stroke="hsl(228.5, 77.2%, 51.5%)" stroke-width="1.5"></path><path d="M1293.77 46.48L1584.47 100.06" stroke="hsl(228.5, 77.2%, 51.5%)" stroke-width="1.5"></path><path d="M1241.25 399.48L1241.25 399.48" stroke="hsl(228.5, 77.2%, 51.5%)" stroke-width="1.5"></path><path d="M1241.25 399.48L1292.51 543.35" stroke="hsl(228.5, 77.2%, 51.5%)" stroke-width="1.5"></path><path d="M1292.51 543.35L1292.51 543.35" stroke="hsl(228.5, 77.2%, 51.5%)" stroke-width="1.5"></path><path d="M1292.51 543.35L1302.4 660.6" stroke="hsl(228.5, 77.2%, 51.5%)" stroke-width="1.5"></path><path d="M1302.4 660.6L1302.4 660.6" stroke="hsl(228.5, 77.2%, 51.5%)" stroke-width="1.5"></path><path d="M1302.4 660.6L1447.12 561.9" stroke="hsl(228.5, 77.2%, 51.5%)" stroke-width="1.5"></path><path d="M1302.4 660.6L1551.41 705.01" stroke="hsl(228.5, 77.2%, 51.5%)" stroke-width="1.5"></path><path d="M1446.08 -39.04L1446.08 -39.04" stroke="hsl(228.5, 77.2%, 51.5%)" stroke-width="1.5"></path><path d="M1446.08 -39.04L1612.43 -68" stroke="hsl(228.5, 77.2%, 51.5%)" stroke-width="1.5"></path><path d="M1446.08 -39.04L1457.98 241.11" stroke="hsl(228.5, 77.2%, 51.5%)" stroke-width="1.5"></path><path d="M1460.19 355.79L1460.19 355.79" stroke="hsl(228.5, 77.2%, 51.5%)" stroke-width="1.5"></path><path d="M1460.19 355.79L1607.57 222.05" stroke="hsl(228.5, 77.2%, 51.5%)" stroke-width="1.5"></path><path d="M1460.19 355.79L1447.12 561.9" stroke="hsl(228.5, 77.2%, 51.5%)" stroke-width="1.5"></path><path d="M1460.19 355.79L1596.39 525.26" stroke="hsl(228.5, 77.2%, 51.5%)" stroke-width="1.5"></path><path d="M1612.43 -68L1612.43 -68" stroke="hsl(228.5, 77.2%, 51.5%)" stroke-width="1.5"></path><path d="M1612.43 -68L1607.57 222.05" stroke="hsl(228.5, 77.2%, 51.5%)" stroke-width="1.5"></path><path d="M1612.43 -68L1293.77 46.48" stroke="hsl(228.5, 77.2%, 51.5%)" stroke-width="1.5"></path><path d="M1612.43 -68L1457.98 241.11" stroke="hsl(228.5, 77.2%, 51.5%)" stroke-width="1.5"></path><path d="M1612.43 -68L1254.42 197.51" stroke="hsl(228.5, 77.2%, 51.5%)" stroke-width="1.5"></path><path d="M1607.57 222.05L1607.57 222.05" stroke="hsl(228.5, 77.2%, 51.5%)" stroke-width="1.5"></path><path d="M1607.57 222.05L1596.39 525.26" stroke="hsl(228.5, 77.2%, 51.5%)" stroke-width="1.5"></path><path d="M1607.57 222.05L1446.08 -39.04" stroke="hsl(228.5, 77.2%, 51.5%)" stroke-width="1.5"></path><path d="M1596.39 525.26L1596.39 525.26" stroke="hsl(228.5, 77.2%, 51.5%)" stroke-width="1.5"></path><path d="M1596.39 525.26L1551.41 705.01" stroke="hsl(228.5, 77.2%, 51.5%)" stroke-width="1.5"></path><path d="M1596.39 525.26L1392.91 649.08" stroke="hsl(228.5, 77.2%, 51.5%)" stroke-width="1.5"></path><path d="M1551.41 705.01L1551.41 705.01" stroke="hsl(228.5, 77.2%, 51.5%)" stroke-width="1.5"></path><path d="M1551.41 705.01L1447.12 561.9" stroke="hsl(228.5, 77.2%, 51.5%)" stroke-width="1.5"></path><path d="M1551.41 705.01L1292.51 543.35" stroke="hsl(228.5, 77.2%, 51.5%)" stroke-width="1.5"></path><path d="M1551.41 705.01L1460.19 355.79" stroke="hsl(228.5, 77.2%, 51.5%)" stroke-width="1.5"></path><circle r="25" cx="514.49" cy="677.85" fill="url(#SvgjsRadialGradient1003)"></circle><circle r="25" cx="710.02" cy="353.84" fill="url(#SvgjsRadialGradient1003)"></circle><circle r="25" cx="831.44" cy="540.47" fill="url(#SvgjsRadialGradient1003)"></circle><circle r="25" cx="1115.48" cy="487.61" fill="url(#SvgjsRadialGradient1003)"></circle><circle r="25" cx="1254.42" cy="197.51" fill="url(#SvgjsRadialGradient1003)"></circle><circle r="25" cx="1457.98" cy="241.11" fill="url(#SvgjsRadialGradient1003)"></circle><circle r="25" cx="1447.12" cy="561.9" fill="url(#SvgjsRadialGradient1003)"></circle><circle r="25" cx="1392.91" cy="649.08" fill="url(#SvgjsRadialGradient1003)"></circle><circle r="25" cx="1584.47" cy="100.06" fill="url(#SvgjsRadialGradient1003)"></circle><circle r="5" cx="-82.57" cy="543.19" fill="#8b9ad9"></circle><circle r="5" cx="-69.44" cy="701.84" fill="#8b9ad9"></circle><circle r="5" cx="57.23" cy="496.47" fill="#8b9ad9"></circle><circle r="5" cx="68.96" cy="694.9" fill="#8b9ad9"></circle><circle r="5" cx="223.91" cy="515.53" fill="#8b9ad9"></circle><circle r="5" cx="224.28" cy="689.7" fill="#8b9ad9"></circle><circle r="5" cx="387.13" cy="553.12" fill="#8b9ad9"></circle><circle r="5" cx="401.56" cy="651.08" fill="#8b9ad9"></circle><circle r="5" cx="547.89" cy="493.22" fill="#8b9ad9"></circle><circle r="5" cx="689.25" cy="535.3" fill="#8b9ad9"></circle><circle r="5" cx="654.38" cy="706.61" fill="#8b9ad9"></circle><circle r="5" cx="832.58" cy="367.92" fill="#8b9ad9"></circle><circle r="5" cx="832.56" cy="651.46" fill="#8b9ad9"></circle><circle r="5" cx="993.15" cy="239.25" fill="#8b9ad9"></circle><circle r="5" cx="937.6" cy="341.75" fill="#8b9ad9"></circle><circle r="5" cx="960.78" cy="512.81" fill="#8b9ad9"></circle><circle r="5" cx="943.95" cy="697.89" fill="#8b9ad9"></circle><circle r="5" cx="1161.38" cy="-70.55" fill="#8b9ad9"></circle><circle r="5" cx="1091.82" cy="366.01" fill="#8b9ad9"></circle><circle r="5" cx="1099.35" cy="698.27" fill="#8b9ad9"></circle><circle r="5" cx="1293.77" cy="46.48" fill="#8b9ad9"></circle><circle r="5" cx="1241.25" cy="399.48" fill="#8b9ad9"></circle><circle r="5" cx="1292.51" cy="543.35" fill="#8b9ad9"></circle><circle r="5" cx="1302.4" cy="660.6" fill="#8b9ad9"></circle><circle r="5" cx="1446.08" cy="-39.04" fill="#8b9ad9"></circle><circle r="5" cx="1460.19" cy="355.79" fill="#8b9ad9"></circle><circle r="5" cx="1612.43" cy="-68" fill="#8b9ad9"></circle><circle r="5" cx="1607.57" cy="222.05" fill="#8b9ad9"></circle><circle r="5" cx="1596.39" cy="525.26" fill="#8b9ad9"></circle><circle r="5" cx="1551.41" cy="705.01" fill="#8b9ad9"></circle></g><defs><mask id="SvgjsMask1002"><rect width="1440" height="560" fill="#ffffff"></rect></mask><radialGradient id="SvgjsRadialGradient1003"><stop stop-color="#ffffff" offset="0.1"></stop><stop stop-color="#1735b3" offset="0.2"></stop><stop stop-color="rgba(23, 53, 179, 0)" offset="1"></stop></radialGradient></defs></svg>